<svg width="16" height="16" viewBox="0 0 16 16" fill="none" xmlns="http://www.w3.org/2000/svg">
<path d="M9 0H7V2H9V0Z" fill="white"/>
<path d="M14.2941 3.05158L12.8803 1.63678L11.4655 3.05058L12.8793 4.46538L14.2941 3.05158Z" fill="white"/>
<path d="M16 7H14V9H16V7Z" fill="white"/>
<path d="M11.5352 13.0194L12.95 14.4332L14.3638 13.0184L12.949 11.6046L11.5352 13.0194Z" fill="white"/>
<path d="M9 14H7V16H9V14Z" fill="white"/>
<path d="M1.56618 12.9485L2.97998 14.3633L4.39478 12.9495L2.98098 11.5347L1.56618 12.9485Z" fill="white"/>
<path d="M2 7H0V9H2V7Z" fill="white"/>
<path d="M4.46464 3.12034L3.04984 1.70654L1.63604 3.12134L3.05084 4.53514L4.46464 3.12034Z" fill="white"/>
<path d="M8 4C5.8 4 4 5.8 4 8C4 10.2 5.8 12 8 12C10.2 12 12 10.2 12 8C12 5.8 10.2 4 8 4Z" fill="white"/>
</svg>